<svg width="24" height="24" viewBox="0 0 24 24" fill="none" xmlns="http://www.w3.org/2000/svg">
<path d="M19 4H18V7C18 7.26522 17.8946 7.51957 17.7071 7.70711C17.5196 7.89464 17.2652 8 17 8C16.7348 8 16.4804 7.89464 16.2929 7.70711C16.1054 7.51957 16 7.26522 16 7V4H8V7C8 7.26522 7.89464 7.51957 7.70711 7.70711C7.51957 7.89464 7.26522 8 7 8C6.73478 8 6.48043 7.89464 6.29289 7.70711C6.10536 7.51957 6 7.26522 6 7V4H5C4.20435 4 3.44129 4.31607 2.87868 4.87868C2.31607 5.44129 2 6.20435 2 7V10H22V7C22 6.20435 21.6839 5.44129 21.1213 4.87868C20.5587 4.31607 19.7956 4 19 4Z" fill="#296048"/>
<path fill-rule="evenodd" clip-rule="evenodd" d="M22 10H2V19C2 19.7956 2.31607 20.5587 2.87868 21.1213C3.44129 21.6839 4.20435 22 5 22H19C19.7956 22 20.5587 21.6839 21.1213 21.1213C21.6839 20.5587 22 19.7956 22 19V10ZM7 8C6.73478 8 6.48043 7.89464 6.29289 7.70711C6.10536 7.51957 6 7.26522 6 7V3C6 2.73478 6.10536 2.48043 6.29289 2.29289C6.48043 2.10536 6.73478 2 7 2C7.26522 2 7.51957 2.10536 7.70711 2.29289C7.89464 2.48043 8 2.73478 8 3V7C8 7.26522 7.89464 7.51957 7.70711 7.70711C7.51957 7.89464 7.26522 8 7 8ZM17 8C16.7348 8 16.4804 7.89464 16.2929 7.70711C16.1054 7.51957 16 7.26522 16 7V3C16 2.73478 16.1054 2.48043 16.2929 2.29289C16.4804 2.10536 16.7348 2 17 2C17.2652 2 17.5196 2.10536 17.7071 2.29289C17.8946 2.48043 18 2.73478 18 3V7C18 7.26522 17.8946 7.51957 17.7071 7.70711C17.5196 7.89464 17.2652 8 17 8ZM12 12.336C12.2761 12.336 12.5 12.5599 12.5 12.836V14.586H14.25C14.5261 14.586 14.75 14.8099 14.75 15.086C14.75 15.3621 14.5261 15.586 14.25 15.586H12.5V17.336C12.5 17.6121 12.2761 17.836 12 17.836C11.7239 17.836 11.5 17.6121 11.5 17.336V15.586H9.75001C9.47387 15.586 9.25001 15.3621 9.25001 15.086C9.25001 14.8099 9.47387 14.586 9.75001 14.586H11.5V12.836C11.5 12.5599 11.7239 12.336 12 12.336Z" fill="#173628"/>
</svg>
