<svg width="43" height="37" viewBox="0 0 43 37" fill="none" xmlns="http://www.w3.org/2000/svg">
<path fill-rule="evenodd" clip-rule="evenodd" d="M4.23883 0.651001C2.02969 0.651001 0.238831 2.44186 0.238831 4.651V29.8682C0.238831 32.0773 2.02969 33.8682 4.23883 33.8682H29.9532C29.5005 32.9096 29.2473 31.8383 29.2473 30.7078C29.2473 26.6157 32.5646 23.2984 36.6567 23.2984C39.1891 23.2984 41.4248 24.5688 42.7612 26.5072V4.651C42.7612 2.44186 40.9703 0.651001 38.7612 0.651001H4.23883ZM14.1303 10.4549C14.1303 12.652 12.3492 14.4332 10.152 14.4332C7.95485 14.4332 6.17369 12.652 6.17369 10.4549C6.17369 8.25769 7.95485 6.47653 10.152 6.47653C12.3492 6.47653 14.1303 8.25769 14.1303 10.4549ZM28.5546 11.9406C28.752 11.7829 29.0359 11.7971 29.2165 11.9738L37.1389 19.7258C37.731 20.3052 38.6807 20.2949 39.2601 19.7027C39.8395 19.1106 39.8292 18.1609 39.237 17.5815L31.3147 9.82953C30.0507 8.59277 28.0628 8.4931 26.6815 9.59724L13.5957 20.0573C13.507 20.1281 13.3969 20.1667 13.2835 20.1667L4.94535 20.1667C4.11693 20.1667 3.44535 20.8383 3.44535 21.6667C3.44535 22.4952 4.11693 23.1667 4.94535 23.1667L13.2835 23.1667C14.0777 23.1667 14.8484 22.8966 15.4688 22.4007L28.5546 11.9406Z" fill="#245741"/>
<path d="M36.6567 26.3098V35.349" stroke="#0F2C21" stroke-width="2" stroke-linecap="round"/>
<path d="M41.1763 30.8294H32.1371" stroke="#0F2C21" stroke-width="2" stroke-linecap="round"/>
</svg>
