<svg width="24" height="24" viewBox="0 0 24 24" fill="none" xmlns="http://www.w3.org/2000/svg">
<path d="M20.904 14.712H3.09604C2.88004 14.712 2.71204 14.544 2.71204 14.328L2.76004 6.38404C2.76004 6.00004 3.26404 5.85604 3.45604 6.19204L7.15204 12.168C7.29604 12.408 7.65604 12.408 7.80004 12.168L11.712 5.61604C11.856 5.37604 12.216 5.37604 12.36 5.61604L16.368 12.12C16.512 12.36 16.872 12.36 17.016 12.12L20.496 6.26404C20.688 5.92804 21.192 6.07204 21.192 6.45604L21.264 14.376C21.288 14.544 21.12 14.712 20.904 14.712Z" fill="#0F2C21"/>
<path d="M20.832 18.5761H3.16804C2.90404 18.5761 2.71204 18.3601 2.71204 18.1201V16.3681C2.71204 16.1041 2.92804 15.9121 3.16804 15.9121H20.832C21.096 15.9121 21.288 16.1281 21.288 16.3681V18.1201C21.288 18.3841 21.096 18.5761 20.832 18.5761Z" fill="#2D6A4F"/>
</svg>
