<svg width="24" height="24" viewBox="0 0 24 24" fill="none" xmlns="http://www.w3.org/2000/svg">
<g clip-path="url(#clip0_124_131)">
<path d="M0 10.7895C0 8.17822 2.11683 6.06139 4.72808 6.06139H8.22286V15.5176H4.72809C2.11684 15.5176 0 13.4007 0 10.7895Z" fill="#2D6A4F"/>
<path d="M4.5841 15.5175H12.8086L9.39983 22.725C9.1488 23.2557 8.73861 23.6951 8.22631 23.982C8.20522 23.9938 8.18146 24 8.1573 24H4.5841H2.3021H2.19974C1.72668 24 1.34319 23.6165 1.34319 23.1435C1.34318 22.8108 1.41447 22.482 1.55227 22.1793L4.5841 15.5175Z" fill="#92BBA2"/>
<rect x="21.4372" width="2.56279" height="21.5789" rx="1.2814" fill="#2D6A4F"/>
<path d="M21.5078 1.95983L21.4367 6.06594H12.8124L14.3044 5.77726C17.0317 5.24954 19.5398 3.92042 21.5078 1.95983Z" fill="#6DA483"/>
<path d="M21.5041 19.6237L21.433 15.5176H12.8086L14.3006 15.8062C17.028 16.334 19.5361 17.6631 21.5041 19.6237Z" fill="#6DA483"/>
<rect x="8.22286" y="6.06594" width="13.2143" height="9.45161" fill="#6DA483"/>
</g>
<defs>
<clipPath id="clip0_124_131">
<rect width="24" height="24" fill="white"/>
</clipPath>
</defs>
</svg>
