<svg width="16" height="17" viewBox="0 0 16 17" fill="none" xmlns="http://www.w3.org/2000/svg">
<path d="M14.6667 7.43172H1.33334V13.4317C1.33334 13.9622 1.54406 14.4709 1.91913 14.8459C2.2942 15.221 2.80291 15.4317 3.33334 15.4317H12.6667C13.1971 15.4317 13.7058 15.221 14.0809 14.8459C14.456 14.4709 14.6667 13.9622 14.6667 13.4317V7.43172ZM4.66668 6.09839C4.48987 6.09839 4.3203 6.02815 4.19527 5.90313C4.07025 5.7781 4.00001 5.60853 4.00001 5.43172V2.76506C4.00001 2.58824 4.07025 2.41868 4.19527 2.29365C4.3203 2.16863 4.48987 2.09839 4.66668 2.09839C4.84349 2.09839 5.01306 2.16863 5.13808 2.29365C5.26311 2.41868 5.33334 2.58824 5.33334 2.76506V5.43172C5.33334 5.60853 5.26311 5.7781 5.13808 5.90313C5.01306 6.02815 4.84349 6.09839 4.66668 6.09839ZM11.3333 6.09839C11.1565 6.09839 10.987 6.02815 10.8619 5.90313C10.7369 5.7781 10.6667 5.60853 10.6667 5.43172V2.76506C10.6667 2.58824 10.7369 2.41868 10.8619 2.29365C10.987 2.16863 11.1565 2.09839 11.3333 2.09839C11.5102 2.09839 11.6797 2.16863 11.8047 2.29365C11.9298 2.41868 12 2.58824 12 2.76506V5.43172C12 5.60853 11.9298 5.7781 11.8047 5.90313C11.6797 6.02815 11.5102 6.09839 11.3333 6.09839Z" fill="#173628"/>
<path d="M12.6667 3.43188H12V5.43188C12 5.6087 11.9298 5.77826 11.8047 5.90329C11.6797 6.02831 11.5102 6.09855 11.3333 6.09855C11.1565 6.09855 10.987 6.02831 10.8619 5.90329C10.7369 5.77826 10.6667 5.6087 10.6667 5.43188V3.43188H5.33334V5.43188C5.33334 5.6087 5.26311 5.77826 5.13808 5.90329C5.01306 6.02831 4.84349 6.09855 4.66668 6.09855C4.48987 6.09855 4.3203 6.02831 4.19527 5.90329C4.07025 5.77826 4.00001 5.6087 4.00001 5.43188V3.43188H3.33334C2.80291 3.43188 2.2942 3.6426 1.91913 4.01767C1.54406 4.39274 1.33334 4.90145 1.33334 5.43188V7.43188H14.6667V5.43188C14.6667 4.90145 14.456 4.39274 14.0809 4.01767C13.7058 3.6426 13.1971 3.43188 12.6667 3.43188Z" fill="#296048"/>
</svg>
