<svg width="25" height="24" viewBox="0 0 25 24" fill="none" xmlns="http://www.w3.org/2000/svg">
<g clip-path="url(#clip0_639_55)">
<path d="M20.5903 2H4.60034C3.50034 2 2.60034 2.9 2.60034 4V22L6.59034 18H20.5903C21.6903 18 22.5903 17.1 22.5903 16V4C22.5903 2.9 21.6903 2 20.5903 2ZM13.5903 14H11.5903V12H13.5903V14ZM13.5903 9C13.5903 9.55 13.1403 10 12.5903 10C12.0403 10 11.5903 9.55 11.5903 9V7C11.5903 6.45 12.0403 6 12.5903 6C13.1403 6 13.5903 6.45 13.5903 7V9Z" fill="#EAF5EB"/>
</g>
<defs>
<clipPath id="clip0_639_55">
<rect width="24" height="24" fill="white" transform="translate(0.590332)"/>
</clipPath>
</defs>
</svg>
