<svg width="25" height="24" viewBox="0 0 25 24" fill="none" xmlns="http://www.w3.org/2000/svg">
<path d="M23.6478 10.8521C24.7838 11.9882 24.7838 13.8302 23.6478 14.9663L16.1353 22.4788C15.6973 22.9168 15.1485 23.2274 14.5476 23.3778L12.2175 23.9602C11.2042 24.2136 10.2863 23.2956 10.5396 22.2824L11.1222 19.9524C11.2724 19.3514 11.5831 18.8026 12.0211 18.3646L19.5336 10.8521C20.6698 9.71598 22.5116 9.71598 23.6478 10.8521ZM12.2363 12.2839L13.689 13.8683L10.607 16.9504C9.9127 17.6446 9.42014 18.5146 9.18198 19.4672L8.59946 21.7974C8.58278 21.864 8.56816 21.9306 8.55558 21.997H5.5C4.44772 21.997 3.47138 21.672 2.66588 21.1168L10.762 12.284C11.1583 11.8516 11.8399 11.8515 12.2363 12.2839ZM21.0904 12.1498L20.9478 12.2663L13.4353 19.7788C13.2991 19.915 13.1925 20.0772 13.1214 20.2549L13.0624 20.4374L12.7291 21.7708L14.0625 21.4374C14.2494 21.3906 14.4242 21.3064 14.5766 21.1907L14.7211 21.0646L22.2336 13.552C22.5886 13.197 22.5886 12.6213 22.2336 12.2663C21.923 11.9556 21.4433 11.9168 21.0904 12.1498ZM17.497 0C20.1479 0 22.3171 2.06308 22.4864 4.67125L22.497 5V8.0839C21.0771 7.81853 19.5627 8.18268 18.4021 9.17633L18.1196 9.43786L15.1046 12.4528L13.7105 10.9323C12.5913 9.71163 10.7142 9.63995 9.506 10.7171L9.28766 10.9326L1.27584 19.6734C0.854726 19.0101 0.585517 18.2409 0.517194 17.4147L0.5 16.997V5C0.5 2.34904 2.56308 0.179923 5.17125 0.0106354L5.5 0H17.497ZM15.4997 4C13.843 4 12.5 5.34302 12.5 6.9997C12.5 8.6564 13.843 9.99942 15.4997 9.99942C17.1564 9.99942 18.4994 8.6564 18.4994 6.9997C18.4994 5.34302 17.1564 4 15.4997 4ZM15.4997 6C16.0518 6 16.4994 6.44758 16.4994 6.99971C16.4994 7.55184 16.0518 7.99942 15.4997 7.99942C14.9476 7.99942 14.5 7.55184 14.5 6.99971C14.5 6.44758 14.9476 6 15.4997 6Z" fill="#528265"/>
</svg>
