<svg width="24" height="24" viewBox="0 0 24 24" fill="none" xmlns="http://www.w3.org/2000/svg">
<path d="M21.3616 3.95088C21.5134 4.31695 21.4509 4.62945 21.1741 4.88838L14.5714 11.4911V21.4286C14.5714 21.8036 14.3973 22.067 14.0491 22.2187C13.933 22.2634 13.8214 22.2857 13.7143 22.2857C13.4732 22.2857 13.2723 22.2009 13.1116 22.0312L9.68302 18.6027C9.51338 18.433 9.42855 18.2321 9.42855 18V11.4911L2.82588 4.88838C2.54909 4.62945 2.48659 4.31695 2.63838 3.95088C2.79016 3.60267 3.05355 3.42856 3.42855 3.42856H20.5714C20.9464 3.42856 21.2098 3.60267 21.3616 3.95088Z" fill="#528265"/>
</svg>
