<svg width="26" height="26" viewBox="0 0 26 26" fill="none" xmlns="http://www.w3.org/2000/svg">
<path d="M18.3324 12.6421L17.8324 12.6421L17.8324 13.6421L18.3324 13.6421L18.3324 12.6421ZM23.4758 13.6421C23.7519 13.6421 23.9758 13.4182 23.9758 13.1421C23.9758 12.8659 23.7519 12.6421 23.4758 12.6421V13.6421ZM18.3324 13.6421L23.4758 13.6421V12.6421L18.3324 12.6421L18.3324 13.6421Z" fill="#296048"/>
<path fill-rule="evenodd" clip-rule="evenodd" d="M4.59033 0.647217C2.38119 0.647217 0.590332 2.43808 0.590332 4.64721V21.6808C0.590332 23.89 2.38119 25.6808 4.59033 25.6808H13.8579C16.067 25.6808 17.8579 23.89 17.8579 21.6808V13.664H17.3674H9.24253C8.96639 13.664 8.74253 13.4402 8.74253 13.164C8.74253 12.8879 8.96639 12.664 9.24253 12.664H17.3674H17.8579V4.64722C17.8579 2.43808 16.067 0.647217 13.8579 0.647217H4.59033Z" fill="#69BF98"/>
<path d="M21.029 10.3008L24.4933 13.1339C24.543 13.1745 24.5421 13.2507 24.4915 13.2902L21.029 15.9866" stroke="#296048" stroke-linecap="round"/>
</svg>
