<svg width="18" height="26" viewBox="0 0 18 26" fill="none" xmlns="http://www.w3.org/2000/svg">
<path d="M17.6922 24.7586C17.6922 26.8573 13.7472 24.7586 8.98331 24.7586C4.21943 24.7586 0.3078 26.8573 0.3078 24.7586C0.3078 22.6598 4.21943 17.1583 8.98331 17.1583C13.7472 17.1583 17.6922 22.6598 17.6922 24.7586Z" fill="#80AF93"/>
<path d="M1.53502 24.2005C1.53502 23.7807 1.87534 23.4404 2.29515 23.4404H16.8278C17.2477 23.4404 17.588 23.7807 17.588 24.2005V24.9312C17.588 25.351 17.2477 25.6913 16.8278 25.6913H1.53502V24.2005Z" fill="#80AF93"/>
<ellipse cx="8.99999" cy="12.6607" rx="5.43316" ry="5.43041" fill="#2D6A4F"/>
<path d="M2.79722 2.53977C2.83472 2.33759 2.97997 2.17221 3.17562 2.10894L4.97351 1.52746L7.15022 1.05029L9.39456 0.842769L11.2758 0.921562C11.5091 0.931333 11.7182 1.0682 11.8206 1.27807V1.27807C11.843 1.32408 11.8563 1.37401 11.8596 1.42509L12.0784 4.7463L12.1554 5.94375C12.223 6.9959 12.467 8.0292 12.8771 9.0005V9.0005L12.4075 9.27444L12.1852 9.42191L11.9379 9.54838L11.6955 9.65939L11.4431 9.74857L10.9483 9.94876L9.83259 10.3552L8.67297 10.5348L7.46868 10.7213L6.22281 10.6806L5.66544 10.6546L5.11173 10.6055L4.84878 10.5523L4.59124 10.4824L4.07075 10.3592V10.3592C4.16077 9.31359 4.07765 8.26029 3.82474 7.24173L3.53327 6.06791L2.8075 2.97587C2.77392 2.83278 2.77042 2.68428 2.79722 2.53977V2.53977Z" fill="#80AF93"/>
<path d="M2.11377 9.67591C1.85713 9.79636 1.67824 10.0235 1.63553 10.283C1.60661 10.4587 1.64236 10.6366 1.73709 10.7884L1.78946 10.8723L1.81561 10.9016C1.95259 11.055 2.14131 11.1623 2.35353 11.2072L3.08347 11.3619L3.64346 11.4673L4.20139 11.5594L5.34367 11.6985L6.46911 11.7373L7.04616 11.7358L7.62483 11.7248L8.96919 11.5169L8.78539 10.3301L7.44122 10.5383L6.8461 10.4921L6.30881 10.4632L6.05492 10.4458L5.80066 10.4169L5.6096 10.3972L5.37472 10.3771L4.90037 10.2907L4.01453 9.99495L2.83725 9.62042C2.60687 9.54713 2.3512 9.56446 2.12981 9.66838L2.11377 9.67591Z" fill="#80AF93"/>
<path d="M14.5219 7.74496C14.8029 7.78238 15.0422 7.94529 15.1616 8.18048C15.2423 8.3397 15.2622 8.52061 15.2179 8.69444L15.1934 8.79054L15.1773 8.82647C15.0933 9.01464 14.9459 9.17431 14.7572 9.28159L14.1084 9.65058L13.6066 9.92097L13.1027 10.178L12.0562 10.657L10.9953 11.0351L10.4449 11.2085L9.88908 11.3745L8.54575 11.5818L8.36141 10.3914L9.70558 10.1833L10.2588 9.95885L10.7621 9.76841L10.9988 9.67486L11.2324 9.57029L11.4085 9.4935L11.6263 9.40317L12.0522 9.17684L12.8069 8.62578L13.8155 7.91109C14.0129 7.77123 14.2618 7.71035 14.5043 7.74263L14.5219 7.74496Z" fill="#80AF93"/>
</svg>
