<svg width="24" height="24" viewBox="0 0 24 24" fill="none" xmlns="http://www.w3.org/2000/svg">
<path d="M24 20.2977C24 22.3965 20.055 20.2977 15.2911 20.2977C10.5272 20.2977 6.61562 22.3965 6.61562 20.2977C6.61562 18.199 10.5272 12.6975 15.2911 12.6975C20.055 12.6975 24 18.199 24 20.2977Z" fill="#92BBA2"/>
<path d="M7.84284 19.7397C7.84284 19.3199 8.18317 18.9795 8.60298 18.9795H23.1357C23.5555 18.9795 23.8958 19.3199 23.8958 19.7397V20.4704C23.8958 20.8902 23.5555 21.2305 23.1357 21.2305H7.84284V19.7397Z" fill="#92BBA2"/>
<ellipse cx="15.3078" cy="8.19988" rx="5.43316" ry="5.43041" fill="#6DA483"/>
<path d="M17.3844 20.2977C17.3844 22.3965 13.4394 20.2977 8.67551 20.2977C3.91163 20.2977 0 22.3965 0 20.2977C0 18.199 3.91163 12.6975 8.67551 12.6975C13.4394 12.6975 17.3844 18.199 17.3844 20.2977Z" fill="#80AF93"/>
<path d="M1.22722 19.7397C1.22722 19.3199 1.56754 18.9795 1.98735 18.9795H16.52C16.9399 18.9795 17.2802 19.3199 17.2802 19.7397V20.4704C17.2802 20.8902 16.9399 21.2305 16.52 21.2305H1.22722V19.7397Z" fill="#80AF93"/>
<ellipse cx="8.69219" cy="8.19988" rx="5.43316" ry="5.43041" fill="#2D6A4F"/>
</svg>
