<svg width="16" height="16" viewBox="0 0 24 25" fill="none" xmlns="http://www.w3.org/2000/svg">

<path d="M18.243 20.8715C18.1215 20.8716 18.0032 20.8324 17.9058 20.7596C17.8084 20.6869 17.7372 20.5846 17.7028 20.468C17.6685 20.3514 17.6728 20.2269 17.7151 20.113C17.7575 19.999 17.8356 19.9019 17.9378 19.8361C18.4677 19.4869 18.9185 19.0303 19.2608 18.4958C19.5844 18.0042 19.6954 17.6063 19.5915 17.3123C19.3804 16.7146 18.2438 16.283 17.2774 15.9736C16.8507 15.8354 16.3941 15.8181 15.9582 15.9235C15.5222 16.029 15.124 16.2531 14.8076 16.571L14.4416 16.9373C14.3761 17.003 14.2953 17.0514 14.2065 17.0783C13.9553 17.1533 12.5764 17.4023 10.0234 14.849C9.97105 14.7967 9.92953 14.7347 9.90117 14.6664C9.87282 14.5982 9.85819 14.525 9.85812 14.451C9.85805 14.3771 9.87254 14.3039 9.90077 14.2356C9.92899 14.1673 9.9704 14.1052 10.0226 14.0528C10.0749 14.0005 10.1369 13.959 10.2051 13.9306C10.2734 13.9023 10.3466 13.8876 10.4205 13.8876C10.4945 13.8875 10.5677 13.902 10.636 13.9302C10.7043 13.9584 10.7664 13.9999 10.8188 14.0521C12.4935 15.7272 13.4738 15.9627 13.7963 15.9901L14.0123 15.7741C14.4747 15.3101 15.0564 14.983 15.6931 14.8288C16.3297 14.6746 16.9966 14.6993 17.6201 14.9003C18.882 15.3046 20.2605 15.8281 20.652 16.9358C20.8796 17.579 20.727 18.3113 20.202 19.1108C19.7738 19.778 19.2102 20.3478 18.5479 20.7833C18.4568 20.8414 18.351 20.872 18.243 20.8715ZM15.5404 21.626C12.9656 21.626 10.0095 20.1372 7.37175 17.4991C7.31803 17.4472 7.27517 17.3851 7.24569 17.3165C7.21621 17.2479 7.2007 17.1741 7.20005 17.0994C7.1994 17.0247 7.21363 16.9506 7.24191 16.8815C7.2702 16.8124 7.31197 16.7495 7.36478 16.6967C7.41759 16.6439 7.4804 16.6022 7.54953 16.5739C7.61866 16.5456 7.69273 16.5314 7.76742 16.532C7.8421 16.5327 7.91591 16.5482 7.98454 16.5777C8.05317 16.6071 8.11524 16.65 8.16713 16.7037C10.6564 19.1933 13.5184 20.6082 15.8134 20.4942C15.8874 20.4894 15.9616 20.4996 16.0316 20.524C16.1016 20.5484 16.166 20.5865 16.2211 20.6362C16.2761 20.6859 16.3206 20.7462 16.3519 20.8134C16.3833 20.8806 16.4009 20.9534 16.4036 21.0275C16.4112 21.1764 16.3592 21.3223 16.2592 21.433C16.1592 21.5437 16.0194 21.6101 15.8704 21.6177C15.7613 21.623 15.651 21.626 15.5404 21.626Z" fill="#C7C7C7"/>
<path d="M7.76925 17.6641C7.69539 17.6642 7.62225 17.6496 7.55403 17.6213C7.48581 17.593 7.42386 17.5514 7.37175 17.4991C4.53375 14.6615 3.003 11.3667 3.27713 8.68585C3.35501 7.87093 3.61931 7.08486 4.04959 6.38843C4.47987 5.69201 5.06458 5.1039 5.7585 4.6696C6.55988 4.1446 7.29225 3.99197 7.9335 4.2196C9.04125 4.6111 9.56513 5.98959 9.969 7.25147C10.1703 7.87493 10.1952 8.54191 10.041 9.17865C9.8868 9.81539 9.55948 10.3971 9.09525 10.8593L8.87363 11.0813C8.90063 11.3712 9.11925 12.3563 10.8173 14.0528C10.9197 14.1589 10.9764 14.301 10.9751 14.4485C10.9739 14.596 10.9147 14.7371 10.8104 14.8414C10.7061 14.9457 10.565 15.0048 10.4175 15.0061C10.2701 15.0074 10.128 14.9507 10.0219 14.8482C7.46888 12.2956 7.71713 10.916 7.7925 10.6655C7.81916 10.5766 7.86763 10.4957 7.9335 10.4303L8.29988 10.064C8.61752 9.7475 8.84143 9.34935 8.94686 8.91354C9.05229 8.47773 9.03512 8.02125 8.89725 7.5946C8.58788 6.62785 8.15625 5.49122 7.55888 5.2801C7.2645 5.17622 6.86625 5.28722 6.375 5.61047C5.81962 5.95179 5.35148 6.41792 5.00777 6.97182C4.66406 7.52573 4.45425 8.15216 4.395 8.80135C4.15463 11.1488 5.56425 14.1035 8.16563 16.7045C8.24435 16.7831 8.29796 16.8834 8.31969 16.9925C8.34141 17.1017 8.33027 17.2148 8.28768 17.3176C8.24508 17.4205 8.17294 17.5083 8.08039 17.5701C7.98785 17.6319 7.87904 17.6649 7.76775 17.6648L7.76925 17.6641Z" fill="#C7C7C7"/>
</svg>
