<svg width="24" height="24" viewBox="0 0 24 24" fill="none" xmlns="http://www.w3.org/2000/svg">
<path d="M8 3H6C5.60618 3.00006 5.21626 3.07793 4.85261 3.22911C4.48897 3.3803 4.15878 3.60184 3.881 3.881C3.60184 4.15878 3.3803 4.48897 3.22911 4.85261C3.07793 5.21626 3.00006 5.60618 3 6V8C3 8.825 3.337 9.575 3.881 10.119C4.15878 10.3982 4.48897 10.6197 4.85261 10.7709C5.21626 10.9221 5.60618 10.9999 6 11H8C8.39382 10.9999 8.78375 10.9221 9.14739 10.7709C9.51103 10.6197 9.84122 10.3982 10.119 10.119C10.3982 9.84122 10.6197 9.51103 10.7709 9.14739C10.9221 8.78375 10.9999 8.39382 11 8V6C10.9999 5.60618 10.9221 5.21626 10.7709 4.85261C10.6197 4.48897 10.3982 4.15878 10.119 3.881C9.84122 3.60184 9.51103 3.3803 9.14739 3.22911C8.78375 3.07793 8.39382 3.00006 8 3ZM18 3H16C15.6062 3.00006 15.2163 3.07793 14.8526 3.22911C14.489 3.3803 14.1588 3.60184 13.881 3.881C13.6018 4.15878 13.3803 4.48897 13.2291 4.85261C13.0779 5.21626 13.0001 5.60618 13 6V8C13 8.825 13.337 9.575 13.881 10.119C14.1588 10.3982 14.489 10.6197 14.8526 10.7709C15.2163 10.9221 15.6062 10.9999 16 11H18C18.3938 10.9999 18.7837 10.9221 19.1474 10.7709C19.511 10.6197 19.8412 10.3982 20.119 10.119C20.3982 9.84122 20.6197 9.51103 20.7709 9.14739C20.9221 8.78375 20.9999 8.39382 21 8V6C20.9999 5.60618 20.9221 5.21626 20.7709 4.85261C20.6197 4.48897 20.3982 4.15878 20.119 3.881C19.8412 3.60184 19.511 3.3803 19.1474 3.22911C18.7837 3.07793 18.3938 3.00006 18 3ZM8 13H6C5.60618 13.0001 5.21626 13.0779 4.85261 13.2291C4.48897 13.3803 4.15878 13.6018 3.881 13.881C3.60184 14.1588 3.3803 14.489 3.22911 14.8526C3.07793 15.2163 3.00006 15.6062 3 16V18C3 18.825 3.337 19.575 3.881 20.119C4.15878 20.3982 4.48897 20.6197 4.85261 20.7709C5.21626 20.9221 5.60618 20.9999 6 21H8C8.39382 20.9999 8.78375 20.9221 9.14739 20.7709C9.51103 20.6197 9.84122 20.3982 10.119 20.119C10.3982 19.8412 10.6197 19.511 10.7709 19.1474C10.9221 18.7837 10.9999 18.3938 11 18V16C10.9999 15.6062 10.9221 15.2163 10.7709 14.8526C10.6197 14.489 10.3982 14.1588 10.119 13.881C9.84122 13.6018 9.51103 13.3803 9.14739 13.2291C8.78375 13.0779 8.39382 13.0001 8 13ZM18 13H16C15.6062 13.0001 15.2163 13.0779 14.8526 13.2291C14.489 13.3803 14.1588 13.6018 13.881 13.881C13.6018 14.1588 13.3803 14.489 13.2291 14.8526C13.0779 15.2163 13.0001 15.6062 13 16V18C13 18.825 13.337 19.575 13.881 20.119C14.1588 20.3982 14.489 20.6197 14.8526 20.7709C15.2163 20.9221 15.6062 20.9999 16 21H18C18.3938 20.9999 18.7837 20.9221 19.1474 20.7709C19.511 20.6197 19.8412 20.3982 20.119 20.119C20.3982 19.8412 20.6197 19.511 20.7709 19.1474C20.9221 18.7837 20.9999 18.3938 21 18V16C20.9999 15.6062 20.9221 15.2163 20.7709 14.8526C20.6197 14.489 20.3982 14.1588 20.119 13.881C19.8412 13.6018 19.511 13.3803 19.1474 13.2291C18.7837 13.0779 18.3938 13.0001 18 13Z" fill="#528265"/>
</svg>
