<svg width="17" height="16" viewBox="0 0 17 16" fill="none" xmlns="http://www.w3.org/2000/svg">
<g clip-path="url(#clip0_221_1771)">
<path d="M3.0446 0.593537C3.0446 0.265736 3.31034 0 3.63814 0H5.86448C6.19228 0 6.45802 0.265736 6.45802 0.593537V10.275H3.0446V0.593537Z" fill="#D2F0D7"/>
<path d="M4.14885 15.7422C4.38011 16.0794 4.87506 16.0872 5.1169 15.7575L8.47252 11.1831C8.76011 10.7911 8.48015 10.2385 7.99394 10.2385H1.5008C1.0232 10.2385 0.741191 10.7739 1.01134 11.1678L4.14885 15.7422Z" fill="#D2F0D7"/>
<path d="M10.7269 15.4065C10.7269 15.7343 10.9927 16 11.3205 16H13.5468C13.8746 16 14.1403 15.7343 14.1403 15.4065V5.72497H10.7269V15.4065Z" fill="#398462"/>
<path d="M11.8312 0.257819C12.0624 -0.079358 12.5574 -0.0872061 12.7992 0.242469L16.1548 4.81688C16.4424 5.20892 16.1625 5.76149 15.6763 5.76149H9.18312C8.70551 5.76149 8.4235 5.2261 8.69365 4.83223L11.8312 0.257819Z" fill="#398462"/>
</g>
<defs>
<clipPath id="clip0_221_1771">
<rect width="15.3646" height="16" fill="white" transform="translate(0.90625)"/>
</clipPath>
</defs>
</svg>
