<svg width="16" height="16" viewBox="0 0 16 16" fill="none" xmlns="http://www.w3.org/2000/svg">
<g clip-path="url(#clip0_221_1775)">
<path d="M13.497 15.4065C13.497 15.7343 13.2313 16 12.9035 16H10.6771C10.3493 16 10.0836 15.7343 10.0836 15.4065V5.72497H13.497V15.4065Z" fill="#D2F0D7"/>
<path d="M12.3928 0.257819C12.1615 -0.079358 11.6666 -0.0872061 11.4247 0.242469L8.0691 4.81688C7.78152 5.20892 8.06147 5.76149 8.54768 5.76149H15.0408C15.5184 5.76149 15.8004 5.2261 15.5303 4.83223L12.3928 0.257819Z" fill="#D2F0D7"/>
<path d="M5.81471 0.593537C5.81471 0.265736 5.54898 0 5.22117 0H2.99483C2.66703 0 2.4013 0.265736 2.4013 0.593537V10.275H5.81471V0.593537Z" fill="#398462"/>
<path d="M4.71046 15.7422C4.4792 16.0794 3.98425 16.0872 3.74242 15.7575L0.38679 11.1831C0.0992064 10.7911 0.379162 10.2385 0.865369 10.2385H7.35851C7.83612 10.2385 8.11812 10.7739 7.84798 11.1678L4.71046 15.7422Z" fill="#398462"/>
</g>
<defs>
<clipPath id="clip0_221_1775">
<rect width="15.3646" height="16" fill="white" transform="matrix(-1 0 0 -1 15.6354 16)"/>
</clipPath>
</defs>
</svg>
