<svg width="24" height="25" viewBox="0 0 24 25" fill="none" xmlns="http://www.w3.org/2000/svg">
<g clip-path="url(#clip0_645_168)">
<path fill-rule="evenodd" clip-rule="evenodd" d="M20.5027 3.50314C18.2468 1.24532 15.2466 0.00126904 12.0502 0C5.46407 0 0.103801 5.35822 0.101166 11.9444C0.100287 14.0496 0.650531 16.1047 1.69612 17.9161L0.000976562 24.1061L6.33532 22.445C8.08054 23.3966 10.0455 23.8981 12.0454 23.899H12.0503C18.6357 23.899 23.9965 18.54 23.9991 11.9539C24.0004 8.76215 22.7587 5.76096 20.5027 3.50314ZM12.0503 21.8815H12.0462C10.2642 21.8808 8.51625 21.4022 6.99144 20.4976L6.62876 20.2824L2.86992 21.2681L3.87325 17.6044L3.63707 17.2288C2.64293 15.6481 2.11784 13.821 2.11862 11.9451C2.1208 6.47097 6.57608 2.01745 12.0542 2.01745C14.7069 2.01846 17.2005 3.05253 19.0756 4.92915C20.9507 6.80577 21.9827 9.30025 21.9817 11.9531C21.9794 17.4276 17.5242 21.8815 12.0503 21.8815ZM17.4979 14.4457C17.1993 14.2963 15.7315 13.5743 15.4578 13.4747C15.1841 13.375 14.9851 13.3253 14.786 13.6241C14.587 13.9229 14.0148 14.5952 13.8406 14.7943C13.6665 14.9935 13.4924 15.0185 13.1938 14.869C12.8952 14.7196 11.9332 14.4045 10.7928 13.3876C9.9053 12.5963 9.30605 11.6188 9.1319 11.32C8.95774 11.0212 9.11338 10.8596 9.26283 10.7109C9.39713 10.5771 9.56139 10.3623 9.71068 10.188C9.85994 10.0137 9.90969 9.88919 10.0092 9.69001C10.1087 9.4908 10.059 9.31649 9.98433 9.1671C9.90969 9.01771 9.31262 7.54862 9.06379 6.95103C8.82147 6.36903 8.57531 6.44777 8.39204 6.43866C8.21809 6.43001 8.01885 6.42815 7.81984 6.42815C7.62079 6.42815 7.29735 6.50286 7.02366 6.80164C6.75 7.10045 5.97875 7.82254 5.97875 9.2916C5.97875 10.7607 7.04855 12.1799 7.19784 12.3791C7.3471 12.5783 9.30312 15.5931 12.2981 16.8859C13.0104 17.1934 13.5666 17.377 14.0002 17.5147C14.7154 17.7418 15.3663 17.7097 15.8807 17.6329C16.4543 17.5472 17.6471 16.9108 17.896 16.2136C18.1448 15.5164 18.1448 14.9189 18.0701 14.7944C17.9955 14.6699 17.7965 14.5952 17.4979 14.4457Z" fill="#37C739"/>
</g>
<defs>
<clipPath id="clip0_645_168">
<rect width="24" height="24.1061" fill="white"/>
</clipPath>
</defs>
</svg>
